# xmcd
#
# Track frame offsets: 
#        150
#        14603
#        26193
#        39951
#        55084
#        67214
#        84261
#        94086
#        115281
#        128791
#        142114
#        143887
#        157109
#        169132
#        183247
#        196489
#        211367
#        223075
#        230597
#        242230
#        258205
#        272707
#
# Disc length: 3929 seconds
#
# Revision: 0
# Processed by: cddbd v1.5.2PL0 Copyright (c) Steve Scherf et al.
# Submitted via: ExactAudioCopy v1.0b3
#
DISCID=4e0f5716
DTITLE=Michael Nesmith - Listen to the Band
DYEAR=1998
DGENRE=Country
TTITLE0=Silver Moon
TTITLE1=Listen to the Band
TTITLE2=Different Drum
TTITLE3=Some of Shelly's Blues
TTITLE4=Mama Nantucket
TTITLE5=Harmony Constant
TTITLE6=Grand Ennui
TTITLE7=Bonaparte's Retreat
TTITLE8=Propinquity (I've Just Begun to Care)
TTITLE9=Lady of the Valley
TTITLE10=First National Rag
TTITLE11=The Keys to the Car
TTITLE12=Two Different Roads
TTITLE13=Nevada Fighter
TTITLE14=I Fall to Pieces
TTITLE15=Rainmaker
TTITLE16=Calico Girlfriend
TTITLE17=Nine Times Blues
TTITLE18=Little Red Rider
TTITLE19=Conversation
TTITLE20=Joanne
TTITLE21=Beyond the Blue Horizon
EXTD=
EXTT0=
EXTT1=
EXTT2=
EXTT3=
EXTT4=
EXTT5=
EXTT6=
EXTT7=
EXTT8=
EXTT9=
EXTT10=
EXTT11=
EXTT12=
EXTT13=
EXTT14=
EXTT15=
EXTT16=
EXTT17=
EXTT18=
EXTT19=
EXTT20=
EXTT21=
PLAYORDER=
